# Blender 4.3.2
# www.blender.org
mtllib roomba.mtl
o Cylinder
v 0.000000 -0.202221 -1.000000
v 0.000000 0.202221 -1.000000
v 0.195090 -0.202221 -0.980785
v 0.195090 0.202221 -0.980785
v 0.382683 -0.202221 -0.923880
v 0.382683 0.202221 -0.923880
v 0.555570 -0.202221 -0.831470
v 0.555570 0.202221 -0.831470
v 0.707107 -0.202221 -0.707107
v 0.707107 0.202221 -0.707107
v 0.831470 -0.202221 -0.555570
v 0.831470 0.202221 -0.555570
v 0.923880 -0.202221 -0.382683
v 0.923880 0.202221 -0.382683
v 0.980785 -0.202221 -0.195090
v 0.980785 0.202221 -0.195090
v 1.000000 -0.202221 0.000000
v 1.000000 0.202221 0.000000
v 0.980785 -0.202221 0.195090
v 0.980785 0.202221 0.195090
v 0.923880 -0.202221 0.382683
v 0.923880 0.202221 0.382683
v 0.831470 -0.202221 0.555570
v 0.831470 0.202221 0.555570
v 0.707107 -0.202221 0.707107
v 0.707107 0.202221 0.707107
v 0.555570 -0.202221 0.831470
v 0.555570 0.202221 0.831470
v 0.382683 -0.202221 0.923880
v 0.382683 0.202221 0.923880
v 0.195090 -0.202221 0.980785
v 0.195090 0.202221 0.980785
v 0.000000 -0.202221 1.000000
v 0.000000 0.202221 1.000000
v -0.195090 -0.202221 0.980785
v -0.195090 0.202221 0.980785
v -0.382683 -0.202221 0.923880
v -0.382683 0.202221 0.923880
v -0.555570 -0.202221 0.831470
v -0.555570 0.202221 0.831470
v -0.707107 -0.202221 0.707107
v -0.707107 0.202221 0.707107
v -0.831470 -0.202221 0.555570
v -0.831470 0.202221 0.555570
v -0.923880 -0.202221 0.382683
v -0.923880 0.202221 0.382683
v -0.980785 -0.202221 0.195090
v -0.980785 0.202221 0.195090
v -1.000000 -0.202221 0.000000
v -1.000000 0.202221 0.000000
v -0.980785 -0.202221 -0.195090
v -0.980785 0.202221 -0.195090
v -0.923880 -0.202221 -0.382683
v -0.923880 0.202221 -0.382683
v -0.831470 -0.202221 -0.555570
v -0.831470 0.202221 -0.555570
v -0.707107 -0.202221 -0.707107
v -0.707107 0.202221 -0.707107
v -0.555570 -0.202221 -0.831470
v -0.555570 0.202221 -0.831470
v -0.382683 -0.202221 -0.923880
v -0.382683 0.202221 -0.923880
v -0.195090 -0.202221 -0.980785
v -0.195090 0.202221 -0.980785
v 0.000000 -0.202221 -0.894423
v 0.174493 -0.202221 -0.877236
v 0.342281 -0.202221 -0.826339
v 0.496915 -0.202221 -0.743685
v 0.632452 -0.202221 -0.632452
v 0.743685 -0.202221 -0.496915
v 0.826339 -0.202221 -0.342281
v 0.877236 -0.202221 -0.174493
v 0.894423 -0.202221 -0.000000
v 0.877236 -0.202221 0.174493
v 0.826339 -0.202221 0.342281
v 0.743685 -0.202221 0.496915
v 0.632452 -0.202221 0.632452
v 0.496915 -0.202221 0.743685
v 0.342281 -0.202221 0.826339
v 0.174493 -0.202221 0.877236
v 0.000000 -0.202221 0.894423
v -0.174493 -0.202221 0.877236
v -0.342281 -0.202221 0.826339
v -0.496915 -0.202221 0.743685
v -0.632452 -0.202221 0.632452
v -0.743685 -0.202221 0.496915
v -0.826339 -0.202221 0.342281
v -0.877236 -0.202221 0.174493
v -0.894423 -0.202221 -0.000000
v -0.877236 -0.202221 -0.174493
v -0.826339 -0.202221 -0.342281
v -0.743685 -0.202221 -0.496915
v -0.632452 -0.202221 -0.632452
v -0.496915 -0.202221 -0.743685
v -0.342281 -0.202221 -0.826339
v -0.174493 -0.202221 -0.877236
v 0.000000 -0.262009 -0.894423
v 0.174493 -0.262009 -0.877236
v 0.342281 -0.262009 -0.826339
v 0.496915 -0.262009 -0.743685
v 0.632452 -0.262009 -0.632452
v 0.743685 -0.262009 -0.496915
v 0.826339 -0.262009 -0.342281
v 0.877236 -0.262009 -0.174493
v 0.894423 -0.262009 -0.000000
v 0.877236 -0.262009 0.174493
v 0.826339 -0.262009 0.342281
v 0.743685 -0.262009 0.496915
v 0.632452 -0.262009 0.632452
v 0.496915 -0.262009 0.743685
v 0.342281 -0.262009 0.826339
v 0.174493 -0.262009 0.877236
v 0.000000 -0.262009 0.894423
v -0.174493 -0.262009 0.877236
v -0.342281 -0.262009 0.826339
v -0.496915 -0.262009 0.743685
v -0.632452 -0.262009 0.632452
v -0.743685 -0.262009 0.496915
v -0.826339 -0.262009 0.342281
v -0.877236 -0.262009 0.174493
v -0.894423 -0.262009 -0.000000
v -0.877236 -0.262009 -0.174493
v -0.826339 -0.262009 -0.342281
v -0.743685 -0.262009 -0.496915
v -0.632452 -0.262009 -0.632452
v -0.496915 -0.262009 -0.743685
v -0.342281 -0.262009 -0.826339
v -0.174493 -0.262009 -0.877236
v 0.033620 0.202221 -0.169021
v 0.000000 0.202221 -0.172332
v 0.065949 0.202221 -0.159214
v 0.095743 0.202221 -0.143289
v 0.121857 0.202221 -0.121857
v 0.143289 0.202221 -0.095743
v 0.159214 0.202221 -0.065949
v 0.169021 0.202221 -0.033620
v 0.172332 0.202221 -0.000000
v 0.169021 0.202221 0.033620
v 0.159214 0.202221 0.065949
v 0.143289 0.202221 0.095743
v 0.121857 0.202221 0.121857
v 0.095743 0.202221 0.143289
v 0.065949 0.202221 0.159214
v 0.033620 0.202221 0.169021
v 0.000000 0.202221 0.172332
v -0.033620 0.202221 0.169021
v -0.065949 0.202221 0.159214
v -0.095743 0.202221 0.143289
v -0.121857 0.202221 0.121857
v -0.143289 0.202221 0.095743
v -0.159214 0.202221 0.065949
v -0.169021 0.202221 0.033620
v -0.172332 0.202221 -0.000000
v -0.169021 0.202221 -0.033620
v -0.159214 0.202221 -0.065949
v -0.143289 0.202221 -0.095743
v -0.121857 0.202221 -0.121857
v -0.095743 0.202221 -0.143289
v -0.065949 0.202221 -0.159214
v -0.033620 0.202221 -0.169021
v 0.033620 0.171409 -0.169021
v 0.000000 0.171409 -0.172332
v 0.065949 0.171409 -0.159214
v 0.095743 0.171409 -0.143289
v 0.121857 0.171409 -0.121857
v 0.143289 0.171409 -0.095743
v 0.159214 0.171409 -0.065949
v 0.169021 0.171409 -0.033620
v 0.172332 0.171409 -0.000000
v 0.169021 0.171409 0.033620
v 0.159214 0.171409 0.065949
v 0.143289 0.171409 0.095743
v 0.121857 0.171409 0.121857
v 0.095743 0.171409 0.143289
v 0.065949 0.171409 0.159214
v 0.033620 0.171409 0.169021
v 0.000000 0.171409 0.172332
v -0.033620 0.171409 0.169021
v -0.065949 0.171409 0.159214
v -0.095743 0.171409 0.143289
v -0.121857 0.171409 0.121857
v -0.143289 0.171409 0.095743
v -0.159214 0.171409 0.065949
v -0.169021 0.171409 0.033620
v -0.172332 0.171409 -0.000000
v -0.169021 0.171409 -0.033620
v -0.159214 0.171409 -0.065949
v -0.143289 0.171409 -0.095743
v -0.121857 0.171409 -0.121857
v -0.095743 0.171409 -0.143289
v -0.065949 0.171409 -0.159214
v -0.033620 0.171409 -0.169021
vn 0.0980 -0.0000 -0.9952
vn 0.2903 -0.0000 -0.9569
vn 0.4714 -0.0000 -0.8819
vn 0.6344 -0.0000 -0.7730
vn 0.7730 -0.0000 -0.6344
vn 0.8819 -0.0000 -0.4714
vn 0.9569 -0.0000 -0.2903
vn 0.9952 -0.0000 -0.0980
vn 0.9952 -0.0000 0.0980
vn 0.9569 -0.0000 0.2903
vn 0.8819 -0.0000 0.4714
vn 0.7730 -0.0000 0.6344
vn 0.6344 -0.0000 0.7730
vn 0.4714 -0.0000 0.8819
vn 0.2903 -0.0000 0.9569
vn 0.0980 -0.0000 0.9952
vn -0.0980 -0.0000 0.9952
vn -0.2903 -0.0000 0.9569
vn -0.4714 -0.0000 0.8819
vn -0.6344 -0.0000 0.7730
vn -0.7730 -0.0000 0.6344
vn -0.8819 -0.0000 0.4714
vn -0.9569 -0.0000 0.2903
vn -0.9952 -0.0000 0.0980
vn -0.9952 -0.0000 -0.0980
vn -0.9569 -0.0000 -0.2903
vn -0.8819 -0.0000 -0.4714
vn -0.7730 -0.0000 -0.6344
vn -0.6344 -0.0000 -0.7730
vn -0.4714 -0.0000 -0.8819
vn -0.0000 1.0000 -0.0000
vn -0.2903 -0.0000 -0.9569
vn -0.0980 -0.0000 -0.9952
vn -0.0000 -1.0000 -0.0000
vt 1.000000 0.500000
vt 1.000000 1.000000
vt 0.968750 1.000000
vt 0.968750 0.500000
vt 0.937500 1.000000
vt 0.937500 0.500000
vt 0.906250 1.000000
vt 0.906250 0.500000
vt 0.875000 1.000000
vt 0.875000 0.500000
vt 0.843750 1.000000
vt 0.843750 0.500000
vt 0.812500 1.000000
vt 0.812500 0.500000
vt 0.781250 1.000000
vt 0.781250 0.500000
vt 0.750000 1.000000
vt 0.750000 0.500000
vt 0.718750 1.000000
vt 0.718750 0.500000
vt 0.687500 1.000000
vt 0.687500 0.500000
vt 0.656250 1.000000
vt 0.656250 0.500000
vt 0.625000 1.000000
vt 0.625000 0.500000
vt 0.593750 1.000000
vt 0.593750 0.500000
vt 0.562500 1.000000
vt 0.562500 0.500000
vt 0.531250 1.000000
vt 0.531250 0.500000
vt 0.500000 1.000000
vt 0.500000 0.500000
vt 0.468750 1.000000
vt 0.468750 0.500000
vt 0.437500 1.000000
vt 0.437500 0.500000
vt 0.406250 1.000000
vt 0.406250 0.500000
vt 0.375000 1.000000
vt 0.375000 0.500000
vt 0.343750 1.000000
vt 0.343750 0.500000
vt 0.312500 1.000000
vt 0.312500 0.500000
vt 0.281250 1.000000
vt 0.281250 0.500000
vt 0.250000 1.000000
vt 0.250000 0.500000
vt 0.218750 1.000000
vt 0.218750 0.500000
vt 0.187500 1.000000
vt 0.187500 0.500000
vt 0.156250 1.000000
vt 0.156250 0.500000
vt 0.125000 1.000000
vt 0.125000 0.500000
vt 0.093750 1.000000
vt 0.093750 0.500000
vt 0.062500 1.000000
vt 0.062500 0.500000
vt 0.031250 1.000000
vt 0.031250 0.500000
vt 0.000000 1.000000
vt 0.000000 0.500000
vt 0.750000 0.490000
vt 0.796822 0.485388
vt 0.841844 0.471731
vt 0.883337 0.449553
vt 0.919706 0.419706
vt 0.949553 0.383337
vt 0.971731 0.341844
vt 0.985388 0.296822
vt 0.990000 0.250000
vt 0.985388 0.203178
vt 0.971731 0.158156
vt 0.949553 0.116663
vt 0.919706 0.080294
vt 0.883337 0.050447
vt 0.841844 0.028269
vt 0.796822 0.014612
vt 0.750000 0.010000
vt 0.703178 0.014612
vt 0.658156 0.028269
vt 0.616663 0.050447
vt 0.580294 0.080294
vt 0.550447 0.116663
vt 0.528269 0.158156
vt 0.514612 0.203178
vt 0.510000 0.250000
vt 0.514612 0.296822
vt 0.528269 0.341844
vt 0.550447 0.383337
vt 0.580294 0.419706
vt 0.616663 0.449553
vt 0.658156 0.471731
vt 0.703178 0.485388
vt 0.296822 0.485388
vt 0.250000 0.490000
vt 0.203178 0.485388
vt 0.158156 0.471731
vt 0.116663 0.449553
vt 0.080294 0.419706
vt 0.050447 0.383337
vt 0.028269 0.341844
vt 0.014612 0.296822
vt 0.010000 0.250000
vt 0.014612 0.203178
vt 0.028269 0.158156
vt 0.050447 0.116663
vt 0.080294 0.080294
vt 0.116663 0.050447
vt 0.158156 0.028269
vt 0.203178 0.014612
vt 0.250000 0.010000
vt 0.296822 0.014612
vt 0.341844 0.028269
vt 0.383337 0.050447
vt 0.419706 0.080294
vt 0.449553 0.116663
vt 0.471731 0.158156
vt 0.485388 0.203178
vt 0.490000 0.250000
vt 0.485388 0.296822
vt 0.471731 0.341844
vt 0.449553 0.383337
vt 0.419706 0.419706
vt 0.383337 0.449553
vt 0.341844 0.471731
s 0
f 1/1/1 2/2/1 4/3/1 3/4/1
f 3/4/2 4/3/2 6/5/2 5/6/2
f 5/6/3 6/5/3 8/7/3 7/8/3
f 7/8/4 8/7/4 10/9/4 9/10/4
f 9/10/5 10/9/5 12/11/5 11/12/5
f 11/12/6 12/11/6 14/13/6 13/14/6
f 13/14/7 14/13/7 16/15/7 15/16/7
f 15/16/8 16/15/8 18/17/8 17/18/8
f 17/18/9 18/17/9 20/19/9 19/20/9
f 19/20/10 20/19/10 22/21/10 21/22/10
f 21/22/11 22/21/11 24/23/11 23/24/11
f 23/24/12 24/23/12 26/25/12 25/26/12
f 25/26/13 26/25/13 28/27/13 27/28/13
f 27/28/14 28/27/14 30/29/14 29/30/14
f 29/30/15 30/29/15 32/31/15 31/32/15
f 31/32/16 32/31/16 34/33/16 33/34/16
f 33/34/17 34/33/17 36/35/17 35/36/17
f 35/36/18 36/35/18 38/37/18 37/38/18
f 37/38/19 38/37/19 40/39/19 39/40/19
f 39/40/20 40/39/20 42/41/20 41/42/20
f 41/42/21 42/41/21 44/43/21 43/44/21
f 43/44/22 44/43/22 46/45/22 45/46/22
f 45/46/23 46/45/23 48/47/23 47/48/23
f 47/48/24 48/47/24 50/49/24 49/50/24
f 49/50/25 50/49/25 52/51/25 51/52/25
f 51/52/26 52/51/26 54/53/26 53/54/26
f 53/54/27 54/53/27 56/55/27 55/56/27
f 55/56/28 56/55/28 58/57/28 57/58/28
f 57/58/29 58/57/29 60/59/29 59/60/29
f 59/60/30 60/59/30 62/61/30 61/62/30
f 8/7/31 6/5/31 131/5/31 132/7/31
f 61/62/32 62/61/32 64/63/32 63/64/32
f 63/64/33 64/63/33 2/65/33 1/66/33
f 59/60/34 61/62/34 95/62/34 94/60/34
f 84/40/20 85/42/20 117/42/20 116/40/20
f 15/16/34 17/18/34 73/18/34 72/16/34
f 33/34/34 35/36/34 82/36/34 81/34/34
f 51/52/34 53/54/34 91/54/34 90/52/34
f 7/8/34 9/10/34 69/10/34 68/8/34
f 25/26/34 27/28/34 78/28/34 77/26/34
f 43/44/34 45/46/34 87/46/34 86/44/34
f 61/62/34 63/64/34 96/64/34 95/62/34
f 17/18/34 19/20/34 74/20/34 73/18/34
f 35/36/34 37/38/34 83/38/34 82/36/34
f 53/54/34 55/56/34 92/56/34 91/54/34
f 9/10/34 11/12/34 70/12/34 69/10/34
f 27/28/34 29/30/34 79/30/34 78/28/34
f 45/46/34 47/48/34 88/48/34 87/46/34
f 1/1/34 3/4/34 66/4/34 65/1/34
f 63/64/34 1/66/34 65/66/34 96/64/34
f 19/20/34 21/22/34 75/22/34 74/20/34
f 37/38/34 39/40/34 84/40/34 83/38/34
f 55/56/34 57/58/34 93/58/34 92/56/34
f 11/12/34 13/14/34 71/14/34 70/12/34
f 29/30/34 31/32/34 80/32/34 79/30/34
f 47/48/34 49/50/34 89/50/34 88/48/34
f 3/4/34 5/6/34 67/6/34 66/4/34
f 21/22/34 23/24/34 76/24/34 75/22/34
f 39/40/34 41/42/34 85/42/34 84/40/34
f 57/58/34 59/60/34 94/60/34 93/58/34
f 13/14/34 15/16/34 72/16/34 71/14/34
f 31/32/34 33/34/34 81/34/34 80/32/34
f 49/50/34 51/52/34 90/52/34 89/50/34
f 5/6/34 7/8/34 68/8/34 67/6/34
f 23/24/34 25/26/34 77/26/34 76/24/34
f 41/42/34 43/44/34 86/44/34 85/42/34
f 97/67/34 98/68/34 99/69/34 100/70/34 101/71/34 102/72/34 103/73/34 104/74/34 105/75/34 106/76/34 107/77/34 108/78/34 109/79/34 110/80/34 111/81/34 112/82/34 113/83/34 114/84/34 115/85/34 116/86/34 117/87/34 118/88/34 119/89/34 120/90/34 121/91/34 122/92/34 123/93/34 124/94/34 125/95/34 126/96/34 127/97/34 128/98/34
f 71/14/7 72/16/7 104/16/7 103/14/7
f 85/42/21 86/44/21 118/44/21 117/42/21
f 72/16/8 73/18/8 105/18/8 104/16/8
f 86/44/22 87/46/22 119/46/22 118/44/22
f 73/18/9 74/20/9 106/20/9 105/18/9
f 87/46/23 88/48/23 120/48/23 119/46/23
f 74/20/10 75/22/10 107/22/10 106/20/10
f 88/48/24 89/50/24 121/50/24 120/48/24
f 75/22/11 76/24/11 108/24/11 107/22/11
f 89/50/25 90/52/25 122/52/25 121/50/25
f 76/24/12 77/26/12 109/26/12 108/24/12
f 90/52/26 91/54/26 123/54/26 122/52/26
f 77/26/13 78/28/13 110/28/13 109/26/13
f 91/54/27 92/56/27 124/56/27 123/54/27
f 78/28/14 79/30/14 111/30/14 110/28/14
f 65/1/1 66/4/1 98/4/1 97/1/1
f 92/56/28 93/58/28 125/58/28 124/56/28
f 79/30/15 80/32/15 112/32/15 111/30/15
f 66/4/2 67/6/2 99/6/2 98/4/2
f 93/58/29 94/60/29 126/60/29 125/58/29
f 80/32/16 81/34/16 113/34/16 112/32/16
f 67/6/3 68/8/3 100/8/3 99/6/3
f 94/60/30 95/62/30 127/62/30 126/60/30
f 81/34/17 82/36/17 114/36/17 113/34/17
f 68/8/4 69/10/4 101/10/4 100/8/4
f 95/62/32 96/64/32 128/64/32 127/62/32
f 82/36/18 83/38/18 115/38/18 114/36/18
f 69/10/5 70/12/5 102/12/5 101/10/5
f 96/64/33 65/66/33 97/66/33 128/64/33
f 83/38/19 84/40/19 116/40/19 115/38/19
f 70/12/6 71/14/6 103/14/6 102/12/6
f 155/53/10 154/51/10 186/51/10 187/53/10
f 26/25/31 24/23/31 140/23/31 141/25/31
f 44/43/31 42/41/31 149/41/31 150/43/31
f 62/61/31 60/59/31 158/59/31 159/61/31
f 18/17/31 16/15/31 136/15/31 137/17/31
f 36/35/31 34/33/31 145/33/31 146/35/31
f 54/53/31 52/51/31 154/51/31 155/53/31
f 10/9/31 8/7/31 132/7/31 133/9/31
f 28/27/31 26/25/31 141/25/31 142/27/31
f 46/45/31 44/43/31 150/43/31 151/45/31
f 64/63/31 62/61/31 159/61/31 160/63/31
f 20/19/31 18/17/31 137/17/31 138/19/31
f 38/37/31 36/35/31 146/35/31 147/37/31
f 56/55/31 54/53/31 155/53/31 156/55/31
f 12/11/31 10/9/31 133/9/31 134/11/31
f 30/29/31 28/27/31 142/27/31 143/29/31
f 48/47/31 46/45/31 151/45/31 152/47/31
f 4/3/31 2/2/31 130/2/31 129/3/31
f 2/65/31 64/63/31 160/63/31 130/65/31
f 22/21/31 20/19/31 138/19/31 139/21/31
f 40/39/31 38/37/31 147/37/31 148/39/31
f 58/57/31 56/55/31 156/55/31 157/57/31
f 14/13/31 12/11/31 134/11/31 135/13/31
f 32/31/31 30/29/31 143/29/31 144/31/31
f 50/49/31 48/47/31 152/47/31 153/49/31
f 6/5/31 4/3/31 129/3/31 131/5/31
f 24/23/31 22/21/31 139/21/31 140/23/31
f 42/41/31 40/39/31 148/39/31 149/41/31
f 60/59/31 58/57/31 157/57/31 158/59/31
f 16/15/31 14/13/31 135/13/31 136/15/31
f 34/33/31 32/31/31 144/31/31 145/33/31
f 52/51/31 50/49/31 153/49/31 154/51/31
f 161/99/31 162/100/31 192/101/31 191/102/31 190/103/31 189/104/31 188/105/31 187/106/31 186/107/31 185/108/31 184/109/31 183/110/31 182/111/31 181/112/31 180/113/31 179/114/31 178/115/31 177/116/31 176/117/31 175/118/31 174/119/31 173/120/31 172/121/31 171/122/31 170/123/31 169/124/31 168/125/31 167/126/31 166/127/31 165/128/31 164/129/31 163/130/31
f 142/27/29 141/25/29 173/25/29 174/27/29
f 156/55/11 155/53/11 187/53/11 188/55/11
f 143/29/30 142/27/30 174/27/30 175/29/30
f 129/3/17 130/2/17 162/2/17 161/3/17
f 157/57/12 156/55/12 188/55/12 189/57/12
f 144/31/32 143/29/32 175/29/32 176/31/32
f 131/5/18 129/3/18 161/3/18 163/5/18
f 158/59/13 157/57/13 189/57/13 190/59/13
f 145/33/33 144/31/33 176/31/33 177/33/33
f 132/7/19 131/5/19 163/5/19 164/7/19
f 159/61/14 158/59/14 190/59/14 191/61/14
f 146/35/1 145/33/1 177/33/1 178/35/1
f 133/9/20 132/7/20 164/7/20 165/9/20
f 160/63/15 159/61/15 191/61/15 192/63/15
f 147/37/2 146/35/2 178/35/2 179/37/2
f 134/11/21 133/9/21 165/9/21 166/11/21
f 130/65/16 160/63/16 192/63/16 162/65/16
f 148/39/3 147/37/3 179/37/3 180/39/3
f 135/13/22 134/11/22 166/11/22 167/13/22
f 149/41/4 148/39/4 180/39/4 181/41/4
f 136/15/23 135/13/23 167/13/23 168/15/23
f 150/43/5 149/41/5 181/41/5 182/43/5
f 137/17/24 136/15/24 168/15/24 169/17/24
f 151/45/6 150/43/6 182/43/6 183/45/6
f 138/19/25 137/17/25 169/17/25 170/19/25
f 152/47/7 151/45/7 183/45/7 184/47/7
f 139/21/26 138/19/26 170/19/26 171/21/26
f 153/49/8 152/47/8 184/47/8 185/49/8
f 140/23/27 139/21/27 171/21/27 172/23/27
f 154/51/9 153/49/9 185/49/9 186/51/9
f 141/25/28 140/23/28 172/23/28 173/25/28
