# Blender 4.3.2
# www.blender.org
mtllib shelf.mtl
o Cube
v 26.740875 1.000000 -8.570137
v 26.740875 -1.000000 -8.570137
v 26.740875 1.000000 8.570137
v 26.740875 -1.000000 8.570137
v -26.740875 1.000000 -8.570137
v -26.740875 -1.000000 -8.570137
v -26.740875 1.000000 8.570137
v -26.740875 -1.000000 8.570137
v -26.740875 -1.000000 -6.427603
v -26.740875 -1.000000 -4.285069
v -26.740875 -1.000000 -2.142534
v -26.740875 -1.000000 0.000000
v -26.740875 -1.000000 2.142534
v -26.740875 -1.000000 4.285069
v -26.740875 -1.000000 6.427603
v 20.055656 -1.000000 -8.570137
v 13.370438 -1.000000 -8.570137
v 6.685219 -1.000000 -8.570137
v 0.000000 -1.000000 -8.570137
v -6.685219 -1.000000 -8.570137
v -13.370438 -1.000000 -8.570137
v -20.055656 -1.000000 -8.570137
v -20.055656 -1.000000 8.570137
v -13.370438 -1.000000 8.570137
v -6.685219 -1.000000 8.570137
v 0.000000 -1.000000 8.570137
v 6.685219 -1.000000 8.570137
v 13.370438 -1.000000 8.570137
v 20.055656 -1.000000 8.570137
v 26.740875 -1.000000 6.427603
v 26.740875 -1.000000 4.285069
v 26.740875 -1.000000 2.142534
v 26.740875 -1.000000 0.000000
v 26.740875 -1.000000 -2.142534
v 26.740875 -1.000000 -4.285069
v 26.740875 -1.000000 -6.427603
v -20.055656 -1.000000 -6.427603
v -20.055656 -1.000000 -4.285069
v -20.055656 -1.000000 -2.142534
v -20.055656 -1.000000 0.000000
v -20.055656 -1.000000 2.142534
v -20.055656 -1.000000 4.285069
v -20.055656 -1.000000 6.427603
v -13.370438 -1.000000 -6.427603
v -13.370438 -1.000000 -4.285069
v -13.370438 -1.000000 -2.142534
v -13.370438 -1.000000 0.000000
v -13.370438 -1.000000 2.142534
v -13.370438 -1.000000 4.285069
v -13.370438 -1.000000 6.427603
v -6.685219 -1.000000 -6.427603
v -6.685219 -1.000000 -4.285069
v -6.685219 -1.000000 -2.142534
v -6.685219 -1.000000 0.000000
v -6.685219 -1.000000 2.142534
v -6.685219 -1.000000 4.285069
v -6.685219 -1.000000 6.427603
v 0.000000 -1.000000 -6.427603
v 0.000000 -1.000000 -4.285069
v 0.000000 -1.000000 -2.142534
v 0.000000 -1.000000 0.000000
v 0.000000 -1.000000 2.142534
v 0.000000 -1.000000 4.285069
v 0.000000 -1.000000 6.427603
v 6.685219 -1.000000 -6.427603
v 6.685219 -1.000000 -4.285069
v 6.685219 -1.000000 -2.142534
v 6.685219 -1.000000 0.000000
v 6.685219 -1.000000 2.142534
v 6.685219 -1.000000 4.285069
v 6.685219 -1.000000 6.427603
v 13.370438 -1.000000 -6.427603
v 13.370438 -1.000000 -4.285069
v 13.370438 -1.000000 -2.142534
v 13.370438 -1.000000 0.000000
v 13.370438 -1.000000 2.142534
v 13.370438 -1.000000 4.285069
v 13.370438 -1.000000 6.427603
v 20.055656 -1.000000 -6.427603
v 20.055656 -1.000000 -4.285069
v 20.055656 -1.000000 -2.142534
v 20.055656 -1.000000 0.000000
v 20.055656 -1.000000 2.142534
v 20.055656 -1.000000 4.285069
v 20.055656 -1.000000 6.427603
v -16.744646 -1.000000 -8.570137
v -16.744646 -1.000000 8.570137
v -16.744646 -1.000000 -6.427603
v -16.744646 -1.000000 -4.285069
v -16.744646 -1.000000 -2.142534
v -16.744646 -1.000000 0.000000
v -16.744646 -1.000000 2.142534
v -16.744646 -1.000000 4.285069
v -16.744646 -1.000000 6.427603
v 16.722288 -1.000000 -8.570137
v 16.722288 -1.000000 8.570137
v 16.722288 -1.000000 -6.427603
v 16.722288 -1.000000 -4.285069
v 16.722288 -1.000000 -2.142534
v 16.722288 -1.000000 0.000000
v 16.722288 -1.000000 2.142534
v 16.722288 -1.000000 4.285069
v 16.722288 -1.000000 6.427603
v -13.370435 -9.320511 -8.294782
v -13.370435 -11.463041 -8.290679
v 13.370435 -9.320511 -8.294782
v 13.370435 -11.463041 -8.290679
v 16.722284 -9.320511 -8.294782
v 16.722284 -11.463041 -8.290679
v -16.744642 -9.320511 -8.294782
v -16.744642 -11.463041 -8.290679
vn -0.0000 1.0000 -0.0000
vn -0.0000 -0.0000 1.0000
vn -1.0000 -0.0000 -0.0000
vn -0.0000 -1.0000 -0.0000
vn 1.0000 -0.0000 -0.0000
vn -0.0000 -0.0000 -1.0000
vn -0.0000 -0.8150 0.5794
vn -0.0000 -0.0019 -1.0000
vn -0.0000 0.8341 -0.5517
vt 0.625000 0.500000
vt 0.875000 0.500000
vt 0.875000 0.750000
vt 0.625000 0.750000
vt 0.375000 0.750000
vt 0.625000 1.000000
vt 0.375000 1.000000
vt 0.375000 0.968750
vt 0.375000 0.953273
vt 0.375000 0.937500
vt 0.375000 0.906250
vt 0.375000 0.875000
vt 0.375000 0.843750
vt 0.375000 0.812500
vt 0.375000 0.796832
vt 0.375000 0.781250
vt 0.375000 0.000000
vt 0.625000 0.000000
vt 0.625000 0.250000
vt 0.375000 0.250000
vt 0.375000 0.218750
vt 0.375000 0.187500
vt 0.375000 0.156250
vt 0.375000 0.125000
vt 0.375000 0.093750
vt 0.375000 0.062500
vt 0.375000 0.031250
vt 0.343750 0.718750
vt 0.375000 0.718750
vt 0.343750 0.750000
vt 0.375000 0.500000
vt 0.375000 0.687500
vt 0.375000 0.656250
vt 0.375000 0.625000
vt 0.375000 0.593750
vt 0.375000 0.562500
vt 0.375000 0.531250
vt 0.375000 0.468750
vt 0.375000 0.453168
vt 0.375000 0.437500
vt 0.375000 0.406250
vt 0.375000 0.375000
vt 0.375000 0.343750
vt 0.375000 0.312500
vt 0.375000 0.296727
vt 0.375000 0.281250
vt 0.125000 0.718750
vt 0.156250 0.718750
vt 0.156250 0.750000
vt 0.125000 0.750000
vt 0.171727 0.718750
vt 0.187500 0.718750
vt 0.187500 0.750000
vt 0.171727 0.750000
vt 0.218750 0.718750
vt 0.218750 0.750000
vt 0.250000 0.718750
vt 0.250000 0.750000
vt 0.281250 0.718750
vt 0.281250 0.750000
vt 0.312500 0.718750
vt 0.312500 0.750000
vt 0.328168 0.718750
vt 0.328168 0.750000
vt 0.125000 0.500000
vt 0.156250 0.500000
vt 0.156250 0.531250
vt 0.125000 0.531250
vt 0.156250 0.562500
vt 0.125000 0.562500
vt 0.156250 0.593750
vt 0.125000 0.593750
vt 0.156250 0.625000
vt 0.125000 0.625000
vt 0.156250 0.656250
vt 0.125000 0.656250
vt 0.156250 0.687500
vt 0.125000 0.687500
vt 0.171727 0.500000
vt 0.187500 0.500000
vt 0.187500 0.531250
vt 0.171727 0.531250
vt 0.187500 0.562500
vt 0.171727 0.562500
vt 0.187500 0.593750
vt 0.171727 0.593750
vt 0.187500 0.625000
vt 0.171727 0.625000
vt 0.187500 0.656250
vt 0.171727 0.656250
vt 0.187500 0.687500
vt 0.171727 0.687500
vt 0.328168 0.687500
vt 0.218750 0.500000
vt 0.218750 0.531250
vt 0.218750 0.562500
vt 0.218750 0.593750
vt 0.218750 0.625000
vt 0.218750 0.656250
vt 0.218750 0.687500
vt 0.250000 0.500000
vt 0.250000 0.531250
vt 0.250000 0.562500
vt 0.250000 0.593750
vt 0.250000 0.625000
vt 0.250000 0.656250
vt 0.250000 0.687500
vt 0.281250 0.500000
vt 0.281250 0.531250
vt 0.281250 0.562500
vt 0.281250 0.593750
vt 0.281250 0.625000
vt 0.281250 0.656250
vt 0.281250 0.687500
vt 0.312500 0.500000
vt 0.312500 0.531250
vt 0.312500 0.562500
vt 0.312500 0.593750
vt 0.312500 0.625000
vt 0.312500 0.656250
vt 0.312500 0.687500
vt 0.328168 0.500000
vt 0.343750 0.500000
vt 0.343750 0.531250
vt 0.328168 0.531250
vt 0.343750 0.562500
vt 0.328168 0.562500
vt 0.343750 0.593750
vt 0.328168 0.593750
vt 0.343750 0.625000
vt 0.328168 0.625000
vt 0.343750 0.656250
vt 0.328168 0.656250
vt 0.343750 0.687500
s 0
usemtl Material
f 1/1/1 5/2/1 7/3/1 3/4/1
f 4/5/2 3/4/2 7/6/2 8/7/2 23/8/2 87/9/2 24/10/2 25/11/2 26/12/2 27/13/2 28/14/2 96/15/2 29/16/2
f 8/17/3 7/18/3 5/19/3 6/20/3 9/21/3 10/22/3 11/23/3 12/24/3 13/25/3 14/26/3 15/27/3
f 85/28/4 30/29/4 4/5/4 29/30/4
f 2/31/5 1/1/5 3/4/5 4/5/5 30/29/5 31/32/5 32/33/5 33/34/5 34/35/5 35/36/5 36/37/5
f 6/20/6 5/19/6 1/1/6 2/31/6 16/38/6 95/39/6 17/40/6 18/41/6 19/42/6 20/43/6 21/44/6 86/45/6 22/46/6
f 15/47/4 43/48/4 23/49/4 8/50/4
f 94/51/4 50/52/4 24/53/4 87/54/4
f 50/52/4 57/55/4 25/56/4 24/53/4
f 57/55/4 64/57/4 26/58/4 25/56/4
f 64/57/4 71/59/4 27/60/4 26/58/4
f 71/59/4 78/61/4 28/62/4 27/60/4
f 103/63/4 85/28/4 29/30/4 96/64/4
f 6/65/4 22/66/4 37/67/4 9/68/4
f 9/68/4 37/67/4 38/69/4 10/70/4
f 10/70/4 38/69/4 39/71/4 11/72/4
f 11/72/4 39/71/4 40/73/4 12/74/4
f 12/74/4 40/73/4 41/75/4 13/76/4
f 13/76/4 41/75/4 42/77/4 14/78/4
f 14/78/4 42/77/4 43/48/4 15/47/4
f 86/79/4 21/80/4 44/81/4 88/82/4
f 88/82/4 44/81/4 45/83/4 89/84/4
f 89/84/4 45/83/4 46/85/4 90/86/4
f 90/86/4 46/85/4 47/87/4 91/88/4
f 91/88/4 47/87/4 48/89/4 92/90/4
f 92/90/4 48/89/4 49/91/4 93/92/4
f 102/93/5 103/63/5 109/63/5 108/93/5
f 21/80/4 20/94/4 51/95/4 44/81/4
f 44/81/4 51/95/4 52/96/4 45/83/4
f 45/83/4 52/96/4 53/97/4 46/85/4
f 46/85/4 53/97/4 54/98/4 47/87/4
f 47/87/4 54/98/4 55/99/4 48/89/4
f 48/89/4 55/99/4 56/100/4 49/91/4
f 49/91/4 56/100/4 57/55/4 50/52/4
f 20/94/4 19/101/4 58/102/4 51/95/4
f 51/95/4 58/102/4 59/103/4 52/96/4
f 52/96/4 59/103/4 60/104/4 53/97/4
f 53/97/4 60/104/4 61/105/4 54/98/4
f 54/98/4 61/105/4 62/106/4 55/99/4
f 55/99/4 62/106/4 63/107/4 56/100/4
f 56/100/4 63/107/4 64/57/4 57/55/4
f 19/101/4 18/108/4 65/109/4 58/102/4
f 58/102/4 65/109/4 66/110/4 59/103/4
f 59/103/4 66/110/4 67/111/4 60/104/4
f 60/104/4 67/111/4 68/112/4 61/105/4
f 61/105/4 68/112/4 69/113/4 62/106/4
f 62/106/4 69/113/4 70/114/4 63/107/4
f 63/107/4 70/114/4 71/59/4 64/57/4
f 18/108/4 17/115/4 72/116/4 65/109/4
f 65/109/4 72/116/4 73/117/4 66/110/4
f 66/110/4 73/117/4 74/118/4 67/111/4
f 67/111/4 74/118/4 75/119/4 68/112/4
f 68/112/4 75/119/4 76/120/4 69/113/4
f 69/113/4 76/120/4 77/121/4 70/114/4
f 70/114/4 77/121/4 78/61/4 71/59/4
f 95/122/4 16/123/4 79/124/4 97/125/4
f 97/125/4 79/124/4 80/126/4 98/127/4
f 98/127/4 80/126/4 81/128/4 99/129/4
f 99/129/4 81/128/4 82/130/4 100/131/4
f 100/131/4 82/130/4 83/132/4 101/133/4
f 101/133/4 83/132/4 84/134/4 102/93/4
f 102/93/4 84/134/4 85/28/4 103/63/4
f 16/123/4 2/31/4 36/37/4 79/124/4
f 79/124/4 36/37/4 35/36/4 80/126/4
f 80/126/4 35/36/4 34/35/4 81/128/4
f 81/128/4 34/35/4 33/34/4 82/130/4
f 82/130/4 33/34/4 32/33/4 83/132/4
f 83/132/4 32/33/4 31/32/4 84/134/4
f 84/134/4 31/32/4 30/29/4 85/28/4
f 42/77/4 93/92/4 94/51/4 43/48/4
f 41/75/4 92/90/4 93/92/4 42/77/4
f 40/73/4 91/88/4 92/90/4 41/75/4
f 39/71/4 90/86/4 91/88/4 40/73/4
f 38/69/4 89/84/4 90/86/4 39/71/4
f 37/67/4 88/82/4 89/84/4 38/69/4
f 22/66/4 86/79/4 88/82/4 37/67/4
f 43/48/4 94/51/4 87/54/4 23/49/4
f 50/52/7 94/51/7 111/51/7 105/52/7
f 76/120/4 101/133/4 102/93/4 77/121/4
f 75/119/4 100/131/4 101/133/4 76/120/4
f 74/118/4 99/129/4 100/131/4 75/119/4
f 73/117/4 98/127/4 99/129/4 74/118/4
f 72/116/4 97/125/4 98/127/4 73/117/4
f 17/115/4 95/122/4 97/125/4 72/116/4
f 78/61/4 103/63/4 96/64/4 28/62/4
f 110/92/8 104/91/8 105/52/8 111/51/8
f 106/121/8 108/93/8 109/63/8 107/61/8
f 49/91/5 50/52/5 105/52/5 104/91/5
f 77/121/9 102/93/9 108/93/9 106/121/9
f 94/51/3 93/92/3 110/92/3 111/51/3
f 93/92/9 49/91/9 104/91/9 110/92/9
f 103/63/7 78/61/7 107/61/7 109/63/7
f 78/61/3 77/121/3 106/121/3 107/61/3
