# Blender 4.3.2
# www.blender.org
mtllib tv2.mtl
o House_Pack.obj00f856ee-0940-472c-bbf3-ebf873640a90.001
v -10.665524 1.783958 1.113724
v -10.753529 1.799958 1.113724
v -10.842525 1.783958 1.113724
v -10.906528 1.740058 1.113724
v -10.930523 1.680058 1.113724
v -10.906528 1.620058 1.113724
v -10.842525 1.576158 1.113724
v -10.753529 1.560058 1.113724
v -10.665524 1.576158 1.113724
v -10.600529 1.740058 1.113724
v -10.665524 1.783958 1.275726
v -10.753529 1.799958 1.275726
v -10.842525 1.783958 1.275726
v -10.906528 1.740058 1.275726
v -10.930523 1.680058 1.275726
v -10.906528 1.620058 1.275726
v -10.842525 1.576158 1.275726
v -10.753529 1.560058 1.275726
v -10.665524 1.576158 1.275726
v -10.600529 1.620058 1.275726
v -10.600529 1.740058 1.275726
v -10.577526 1.680058 1.275726
v -10.753529 1.680058 1.275726
v -10.282528 1.680058 1.275726
v -10.106525 1.680058 1.275726
v -10.129528 1.620058 1.275726
v -10.194523 1.576158 1.275726
v -10.194523 1.576158 1.113724
v -10.282528 1.560058 1.113724
v -10.282528 1.560058 1.275726
v -10.371525 1.576158 1.113724
v -10.371525 1.576158 1.275726
v -10.435528 1.620058 1.275726
v -10.435528 1.620058 1.113724
v -10.459530 1.680058 1.275726
v -10.459530 1.680058 1.113724
v -10.435528 1.740058 1.113724
v -10.435528 1.740058 1.275726
v -10.371525 1.783958 1.113724
v -10.371525 1.783958 1.275726
v -10.282528 1.799958 1.113724
v -10.282528 1.799958 1.275726
v -10.194523 1.783958 1.275726
v -10.194523 1.783958 1.113724
v -10.129528 1.740058 1.275726
v -9.723530 1.783958 1.113724
v -9.811527 1.799958 1.113724
v -9.900524 1.783958 1.113724
v -9.964527 1.740058 1.113724
v -9.988529 1.680058 1.113724
v -9.964527 1.620058 1.113724
v -9.900524 1.576158 1.113724
v -9.811527 1.560058 1.113724
v -9.723530 1.576158 1.113724
v -9.658527 1.740058 1.113724
v -9.723530 1.783958 1.275726
v -9.811527 1.799958 1.275726
v -9.900524 1.783958 1.275726
v -9.964527 1.740058 1.275726
v -9.988529 1.680058 1.275726
v -9.964527 1.620058 1.275726
v -9.900524 1.576158 1.275726
v -9.811527 1.560058 1.275726
v -9.723530 1.576158 1.275726
v -9.658527 1.620058 1.275726
v -9.658527 1.740058 1.275726
v -9.635525 1.680058 1.275726
v -9.811527 1.680058 1.275726
v -11.707523 1.680058 1.275726
v -11.449528 1.680058 1.275726
v -11.483524 1.550558 1.275726
v -11.483524 1.550558 1.048729
v -11.578526 1.455858 1.048729
v -11.578526 1.455858 1.275726
v -11.707523 1.421158 1.048729
v -11.707523 1.421158 1.275726
v -11.837528 1.455858 1.048729
v -11.837528 1.455858 1.275726
v -11.932529 1.550558 1.275726
v -11.932529 1.550558 1.048729
v -11.966526 1.680058 1.275726
v -11.966526 1.680058 1.048729
v -11.932529 1.809458 1.275726
v -11.932529 1.809458 1.048729
v -11.837528 1.904258 1.048729
v -11.837528 1.904258 1.275726
v -11.707523 1.938958 1.048729
v -11.707523 1.938958 1.275726
v -11.578526 1.904258 1.275726
v -11.578526 1.904258 1.048729
v -11.483524 1.809458 1.275726
v 0.487473 0.643611 -0.636276
v 0.487473 0.643611 -0.094276
v -2.063526 0.643611 -0.094276
v -2.063526 0.643611 -0.636276
v 0.488472 0.208750 -0.480270
v 0.487473 0.591967 -0.097275
v -2.062527 0.208750 -0.480270
v -2.063526 0.591967 -0.097275
v 1.632473 0.005248 -0.050270
v 1.632473 0.547221 -0.050270
v -3.712528 0.547221 -0.050270
v -3.712528 0.005248 -0.050270
v -3.710526 -0.006341 2.113724
v 1.634472 0.535628 2.113724
v 1.634472 -0.006341 2.113724
v -3.710526 0.535628 2.113724
v -2.063526 6.554858 -0.094276
v 0.487473 6.554858 -0.094276
v -2.063526 6.554858 -0.636276
v 0.487473 6.554858 -0.636276
v -2.062527 6.830858 -0.310272
v 0.488472 6.830858 -0.093277
v -2.062527 6.830858 -0.093277
v 0.488472 6.830858 -0.310272
v -12.913525 1.053058 1.193726
v -12.913525 14.806408 1.193726
v 10.832474 14.806408 1.193726
v 10.832474 1.053058 1.193726
v -3.317528 2.575558 1.193726
v 9.062473 2.575558 1.193726
v 5.738472 2.575558 1.193726
v 9.067474 2.575558 1.193726
v -9.269527 13.904808 1.193726
v 1.252472 13.904808 1.193726
v -11.926525 13.904808 1.193726
v -11.954525 2.575558 1.003723
v -11.954525 2.575558 1.193726
v -11.954525 8.833158 1.193726
v -11.954525 13.904808 1.193726
v -11.954525 13.904808 1.003723
v -11.954525 13.869608 1.193726
v 9.890472 2.575558 1.193726
v 9.890472 2.575558 1.003723
v 9.890472 13.904808 1.193726
v 9.890472 10.738607 1.193726
v 9.890472 13.904808 1.003723
v 10.832474 1.053058 0.504730
v -12.913525 1.053058 0.504730
v -12.913525 14.806408 0.504730
v 10.832474 14.806408 0.504730
v -11.676525 13.664807 -0.164276
v 9.598473 2.176458 -0.164276
v 9.598473 13.664807 -0.164276
v -11.676525 2.176458 -0.164276
vn 0.5597 0.8287 -0.0000
vn 0.5595 0.8288 -0.0000
vn 0.1789 0.9839 -0.0000
vn -0.0915 0.9958 -0.0000
vn 0.0010 1.0000 -0.0000
vn -0.3127 0.9498 -0.0000
vn -0.4449 0.8956 -0.0000
vn -0.7807 0.6248 -0.0000
vn -0.7806 0.6250 -0.0000
vn -0.9912 0.1321 -0.0000
vn -0.9912 -0.1321 -0.0000
vn -0.7807 -0.6249 -0.0000
vn -0.7806 -0.6250 -0.0000
vn -0.4452 -0.8954 -0.0000
vn -0.3134 -0.9496 -0.0000
vn -0.0596 -0.9982 -0.0000
vn 0.0615 -0.9981 -0.0000
vn 0.1162 -0.9932 -0.0000
vn 0.1796 -0.9816 0.0645
vn -0.0000 -0.0000 1.0000
vn 0.1799 -0.9837 -0.0000
vn 0.0010 -1.0000 -0.0000
vn 0.1800 -0.9837 -0.0000
vn -0.9912 -0.1322 -0.0000
vn -0.9912 0.1322 -0.0000
vn -0.7807 0.6249 -0.0000
vn -0.0592 0.9982 -0.0000
vn 0.0611 0.9981 -0.0000
vn 0.2678 0.9635 -0.0000
vn 0.3774 0.9260 -0.0000
vn 0.4799 0.8773 -0.0000
vn 0.6122 0.7907 -0.0000
vn 0.1151 0.9934 -0.0000
vn 0.1785 0.9818 -0.0648
vn -0.1770 0.9842 -0.0000
vn -0.4784 0.8782 -0.0000
vn -0.3795 0.9252 -0.0000
vn -0.9912 0.1320 -0.0000
vn -0.8396 -0.5432 -0.0000
vn -0.7138 -0.7003 -0.0000
vn -0.3802 -0.9249 -0.0000
vn -0.3803 -0.9248 -0.0000
vn -0.0595 -0.9982 -0.0000
vn 0.7060 -0.7082 -0.0000
vn 0.6742 -0.7352 0.0702
vn 0.7037 -0.7058 -0.0815
vn 0.2598 -0.9657 -0.0000
vn 0.0899 -0.9960 -0.0000
vn -0.0880 -0.9961 -0.0000
vn -0.4199 -0.9075 -0.0000
vn -0.5739 -0.8189 -0.0000
vn -0.8669 -0.4985 -0.0000
vn -0.9962 -0.0871 -0.0000
vn -0.9962 0.0873 -0.0000
vn -0.9083 0.4183 -0.0000
vn -0.8186 0.5743 -0.0000
vn -0.4991 0.8665 -0.0000
vn -0.0880 0.9961 -0.0000
vn 0.0899 0.9960 -0.0000
vn 0.3828 0.9238 -0.0000
vn 0.5000 0.8661 -0.0000
vn 0.6464 0.7630 0.0001
vn -0.0000 0.0063 1.0000
vn 0.0007 -0.0000 1.0000
vn 0.0161 -0.0000 0.9999
vn -0.0000 -0.0000 -1.0000
vn -0.0000 -0.1136 -0.9935
vn 0.0001 -0.2272 -0.9739
vn -1.0000 0.0015 -0.0000
vn -1.0000 -0.0010 -0.0001
vn -1.0000 -0.0000 -0.0000
vn -1.0000 0.0025 -0.0000
vn 1.0000 -0.0011 -0.0000
vn 1.0000 -0.0000 -0.0000
vn 1.0000 -0.0022 -0.0000
vn -0.0000 -0.3364 -0.9417
vn -0.0000 -0.3363 -0.9417
vn 1.0000 0.0024 0.0002
vn 1.0000 0.0024 -0.0001
vn -1.0000 -0.0012 -0.0001
vn -1.0000 -0.0024 -0.0002
vn -0.0000 -0.9561 -0.2931
vn -0.0000 -0.9039 -0.4278
vn -0.0000 -0.9888 -0.1492
vn 0.0004 0.8702 0.4928
vn -0.0000 0.7236 0.6903
vn -0.0000 0.7236 0.6902
vn -0.0000 0.9685 0.2492
vn -0.0285 -0.0000 -0.9996
vn -0.2621 0.6819 -0.6829
vn -0.0000 -1.0000 -0.0054
vn 1.0000 -0.0000 -0.0009
vn -0.0000 1.0000 0.0054
vn -1.0000 -0.0000 0.0009
vn -1.0000 0.0036 -0.0000
vn 1.0000 -0.0036 -0.0000
vn -0.0000 0.8903 -0.4554
vn -0.0000 0.7632 -0.6461
vn -0.0000 0.9737 -0.2277
vn -0.0000 1.0000 -0.0000
vn -0.0002 -0.0000 1.0000
vn -0.0001 -0.0000 1.0000
vn -0.0000 -1.0000 -0.0000
vn 0.2544 0.2699 -0.9287
vn 0.2527 -0.1356 -0.9580
vn 0.1254 0.1330 -0.9832
vn 0.1685 -0.3616 -0.9170
vn -0.1006 -0.2163 -0.9711
vn -0.3362 -0.1808 -0.9243
vn -0.2028 0.2156 -0.9552
vn -0.2539 0.2698 -0.9288
vn 0.0410 -0.0000 -0.9992
vn 0.3646 0.6587 -0.6582
vt 0.000000 0.000000
s 1
usemtl acmat_0
f 11/1/1 10/1/1 1/1/1
f 10/1/1 11/1/1 21/1/2
f 11/1/3 2/1/4 12/1/5
f 13/1/6 2/1/4 3/1/7
f 2/1/4 13/1/6 12/1/5
f 14/1/8 3/1/7 4/1/9
f 3/1/7 14/1/8 13/1/6
f 14/1/8 5/1/10 15/1/11
f 5/1/10 14/1/8 4/1/9
f 15/1/11 6/1/12 16/1/13
f 6/1/12 15/1/11 5/1/10
f 17/1/14 6/1/12 7/1/15
f 6/1/12 17/1/14 16/1/13
f 18/1/16 7/1/15 8/1/17
f 7/1/15 18/1/16 17/1/14
f 19/1/18 8/1/17 9/1/19
f 8/1/17 19/1/18 18/1/16
f 23/1/20 21/1/20 11/1/20
f 23/1/20 11/1/20 12/1/20
f 23/1/20 12/1/20 13/1/20
f 23/1/20 13/1/20 14/1/20
f 23/1/20 14/1/20 15/1/20
f 23/1/20 15/1/20 16/1/20
f 23/1/20 16/1/20 17/1/20
f 23/1/20 17/1/20 18/1/20
f 23/1/20 18/1/20 19/1/20
f 23/1/20 19/1/20 20/1/20
f 23/1/20 20/1/20 22/1/20
f 23/1/20 22/1/20 21/1/20
f 24/1/20 25/1/20 45/1/20
f 24/1/20 26/1/20 25/1/20
f 24/1/20 27/1/20 26/1/20
f 24/1/20 30/1/20 27/1/20
f 24/1/20 32/1/20 30/1/20
f 24/1/20 33/1/20 32/1/20
f 24/1/20 35/1/20 33/1/20
f 24/1/20 38/1/20 35/1/20
f 24/1/20 40/1/20 38/1/20
f 24/1/20 42/1/20 40/1/20
f 24/1/20 43/1/20 42/1/20
f 24/1/20 45/1/20 43/1/20
f 28/1/21 30/1/22 29/1/22
f 30/1/22 28/1/21 27/1/23
f 30/1/22 31/1/15 29/1/22
f 31/1/15 30/1/22 32/1/14
f 32/1/14 34/1/12 31/1/15
f 34/1/12 32/1/14 33/1/12
f 35/1/24 34/1/12 33/1/12
f 34/1/12 35/1/24 36/1/25
f 38/1/26 36/1/25 35/1/24
f 36/1/25 38/1/26 37/1/26
f 38/1/26 39/1/7 37/1/26
f 39/1/7 38/1/26 40/1/6
f 40/1/6 41/1/27 39/1/7
f 41/1/27 40/1/6 42/1/28
f 42/1/28 44/1/29 41/1/27
f 44/1/29 42/1/28 43/1/30
f 45/1/31 44/1/29 43/1/30
f 55/1/1 56/1/32 66/1/1
f 57/1/3 46/1/33 47/1/3
f 46/1/33 57/1/3 56/1/34
f 57/1/35 48/1/36 58/1/37
f 59/1/26 48/1/36 49/1/9
f 48/1/36 59/1/26 58/1/37
f 59/1/26 50/1/38 60/1/11
f 50/1/38 59/1/26 49/1/9
f 60/1/11 51/1/39 61/1/40
f 51/1/39 60/1/11 50/1/38
f 52/1/41 61/1/40 51/1/39
f 61/1/40 52/1/41 62/1/42
f 63/1/43 52/1/41 53/1/17
f 52/1/41 63/1/43 62/1/42
f 64/1/23 53/1/17 54/1/23
f 53/1/17 64/1/23 63/1/43
f 68/1/20 66/1/20 56/1/20
f 68/1/20 56/1/20 57/1/20
f 68/1/20 57/1/20 58/1/20
f 68/1/20 58/1/20 59/1/20
f 68/1/20 59/1/20 60/1/20
f 68/1/20 60/1/20 61/1/20
f 68/1/20 61/1/20 62/1/20
f 68/1/20 62/1/20 63/1/20
f 68/1/20 63/1/20 64/1/20
f 68/1/20 64/1/20 65/1/20
f 68/1/20 65/1/20 67/1/20
f 68/1/20 67/1/20 66/1/20
f 69/1/20 70/1/20 91/1/20
f 69/1/20 71/1/20 70/1/20
f 69/1/20 74/1/20 71/1/20
f 69/1/20 76/1/20 74/1/20
f 69/1/20 78/1/20 76/1/20
f 69/1/20 79/1/20 78/1/20
f 69/1/20 81/1/20 79/1/20
f 69/1/20 83/1/20 81/1/20
f 69/1/20 86/1/20 83/1/20
f 69/1/20 88/1/20 86/1/20
f 69/1/20 89/1/20 88/1/20
f 69/1/20 91/1/20 89/1/20
f 74/1/44 72/1/45 71/1/46
f 74/1/47 75/1/48 73/1/47
f 75/1/48 74/1/47 76/1/49
f 76/1/49 77/1/50 75/1/48
f 77/1/50 76/1/49 78/1/51
f 78/1/51 80/1/52 77/1/50
f 80/1/52 78/1/51 79/1/52
f 81/1/53 80/1/52 79/1/52
f 80/1/52 81/1/53 82/1/54
f 83/1/55 82/1/54 81/1/53
f 82/1/54 83/1/55 84/1/56
f 84/1/56 86/1/57 85/1/57
f 86/1/57 84/1/56 83/1/55
f 86/1/57 87/1/58 85/1/57
f 87/1/58 86/1/57 88/1/59
f 88/1/59 90/1/60 87/1/58
f 90/1/60 88/1/59 89/1/61
f 91/1/62 90/1/60 89/1/61
f 93/1/63 108/1/64 94/1/65
f 108/1/64 93/1/63 109/1/20
f 111/1/66 95/1/67 110/1/66
f 95/1/67 111/1/66 92/1/68
f 108/1/69 95/1/70 94/1/71
f 95/1/70 108/1/69 110/1/72
f 111/1/73 93/1/74 92/1/74
f 93/1/74 111/1/73 109/1/75
f 92/1/68 98/1/76 95/1/67
f 98/1/76 92/1/68 96/1/77
f 92/1/78 97/1/79 96/1/78
f 99/1/80 95/1/70 98/1/81
f 95/1/70 99/1/80 94/1/71
f 100/1/82 98/1/83 96/1/83
f 98/1/83 100/1/82 103/1/84
f 102/1/85 97/1/86 99/1/87
f 97/1/86 102/1/85 101/1/88
f 99/1/89 103/1/89 102/1/89
f 103/1/90 99/1/90 98/1/90
f 106/1/91 103/1/84 100/1/82
f 103/1/84 106/1/91 104/1/91
f 100/1/92 105/1/92 106/1/92
f 105/1/92 100/1/92 101/1/92
f 107/1/93 101/1/88 102/1/85
f 101/1/88 107/1/93 105/1/93
f 107/1/94 103/1/94 104/1/94
f 103/1/94 107/1/94 102/1/94
f 106/1/20 107/1/20 104/1/20
f 107/1/20 106/1/20 105/1/20
f 114/1/95 110/1/72 108/1/69
f 110/1/72 114/1/95 112/1/95
f 115/1/96 109/1/75 111/1/73
f 109/1/75 115/1/96 113/1/96
f 112/1/97 111/1/98 110/1/98
f 111/1/98 112/1/97 115/1/99
f 114/1/100 115/1/99 112/1/97
f 115/1/99 114/1/100 113/1/100
f 134/1/20 131/1/20 127/1/20
f 131/1/20 134/1/20 137/1/20
f 119/1/20 122/1/20 120/1/20
f 126/1/20 117/1/20 130/1/101
f 123/1/20 119/1/20 133/1/20
f 128/1/20 119/1/20 120/1/20
f 117/1/20 132/1/102 130/1/101
f 124/1/20 117/1/20 126/1/20
f 117/1/20 124/1/20 125/1/20
f 116/1/20 119/1/20 128/1/20
f 129/1/20 116/1/20 128/1/20
f 122/1/20 119/1/20 121/1/20
f 119/1/20 136/1/20 133/1/20
f 135/1/20 117/1/20 125/1/20
f 117/1/20 116/1/20 129/1/20
f 132/1/102 117/1/20 129/1/20
f 118/1/20 136/1/20 119/1/20
f 118/1/20 135/1/20 136/1/20
f 118/1/20 117/1/20 135/1/20
f 119/1/103 139/1/103 138/1/103
f 139/1/103 119/1/103 116/1/103
f 117/1/100 141/1/100 140/1/100
f 141/1/100 117/1/100 118/1/100
f 117/1/71 139/1/71 116/1/71
f 139/1/71 117/1/71 140/1/71
f 141/1/74 119/1/74 138/1/74
f 119/1/74 141/1/74 118/1/74
f 128/1/100 134/1/100 127/1/100
f 134/1/100 128/1/100 120/1/100
f 134/1/100 120/1/100 133/1/100
f 131/1/103 135/1/103 126/1/103
f 129/1/74 131/1/74 132/1/74
f 136/1/71 134/1/71 133/1/71
f 134/1/71 136/1/71 137/1/71
f 141/1/104 143/1/105 144/1/106
f 143/1/105 141/1/104 138/1/107
f 145/1/108 138/1/107 139/1/109
f 138/1/107 145/1/108 143/1/105
f 142/1/110 139/1/109 140/1/111
f 139/1/109 142/1/110 145/1/108
f 141/1/104 142/1/110 140/1/111
f 142/1/110 141/1/104 144/1/106
f 144/1/106 145/1/108 142/1/110
f 145/1/108 144/1/106 143/1/105
f 97/1/112 101/1/112 100/1/112
f 96/1/113 97/1/113 100/1/113
