# Blender 4.3.2
# www.blender.org
mtllib tv_table.mtl
o House_Pack.obj00f856ee-0940-472c-bbf3-ebf873640a90.221
v 9.119240 6.678437 -3.225708
v 14.234238 6.678437 -3.225708
v 14.234238 0.398058 -3.225708
v 9.119240 0.398058 -3.225708
v 9.119240 1.612867 3.896393
v 9.119240 6.678437 3.896393
v 9.119240 1.355927 3.896393
v 9.119240 0.398059 3.896393
v 14.234238 6.678437 3.896393
v 14.234238 0.398059 3.896393
v 14.642239 6.991967 3.896393
v 14.642239 0.008049 3.896393
v -8.315762 1.506347 3.896393
v -8.315762 0.398059 3.896393
v -13.976761 0.008048 -4.508705
v -13.976761 0.008049 3.896393
v 14.642239 0.008048 -4.508705
v 14.642239 6.991966 -4.508705
v 13.300240 0.398059 3.896393
v 13.044239 0.398059 3.896393
v -13.976761 6.991967 3.896393
v -13.976761 6.991966 -4.508705
v -12.527763 6.678437 3.896393
v -12.691761 6.678437 3.896393
v -13.430763 6.462587 3.896393
v -13.430763 6.678437 3.896393
v -13.430763 5.570147 3.896393
v -8.315762 6.678437 3.896393
v -8.315762 6.678437 -3.225708
v -8.315762 5.610447 3.896393
v -13.430763 6.678437 -3.225708
v -8.315762 0.398058 -3.225708
v -13.430763 0.398059 3.896393
v -13.430763 0.398058 -3.225708
v -12.502762 0.398059 3.896393
v -9.217762 0.398059 3.896393
v 14.442238 4.490767 3.507996
v 14.442238 4.961157 3.507996
v 14.442238 4.961156 -3.625809
v 14.442238 4.490766 -3.625809
v -13.710762 4.961157 3.507996
v -13.710762 4.490767 3.507996
v -13.710762 4.490766 -3.625809
v -13.710762 4.961156 -3.625809
v -0.079762 3.224647 3.552391
v 0.196239 3.224647 3.552391
v 0.196239 3.364687 3.552391
v -0.079762 3.364687 3.552391
v -0.079762 3.364687 4.088989
v -0.079762 3.224647 4.088989
v 0.196239 3.224647 4.088989
v 0.196239 3.364687 4.088989
v 0.196239 3.317437 4.357094
v -0.079762 3.317437 4.357094
v 0.196239 3.405817 4.237190
v -0.079762 3.503577 4.446693
v 0.196239 3.503577 4.446693
v 0.196239 3.503577 4.288994
v -0.079762 3.842997 4.446693
v 0.196239 3.842997 4.446693
v 0.196239 3.842997 4.288994
v -0.079762 3.503577 4.288994
v -0.079762 3.842997 4.288994
v 0.196239 4.725747 4.288994
v 0.196239 4.848777 4.242294
v -0.079762 4.725747 4.288994
v 0.196239 4.725747 4.446693
v 0.196239 4.911897 4.357094
v -0.079762 4.725747 4.446693
v -0.079762 4.911897 4.357094
v -0.079762 4.848777 4.242294
v -0.079762 5.004677 4.088989
v -0.079762 4.902787 4.088989
v 0.196239 5.004677 4.088989
v 0.196239 5.004677 3.552391
v 0.196239 4.902787 4.088989
v -0.079762 4.902787 3.552391
v 0.196239 4.902787 3.552391
v -0.079762 5.004677 3.552391
v -0.079762 3.405817 4.237190
v 1.391239 3.842997 4.456490
v 1.391239 4.725747 4.456490
v 1.391239 4.725747 4.298790
v 1.391239 3.842997 4.298790
v 1.115238 4.725747 4.456490
v 1.115238 3.842997 4.456490
v 1.115238 3.842997 4.298790
v 1.391239 3.503577 4.456490
v 1.391239 3.503577 4.298790
v 1.115238 3.503577 4.456490
v 1.391239 3.405817 4.246895
v 1.391239 3.317437 4.366890
v 1.115238 3.317437 4.366890
v 1.391239 3.364687 4.098694
v 1.391239 3.224647 4.098694
v 1.115238 3.224647 4.098694
v 1.115238 3.224647 3.562195
v 1.115238 3.364687 4.098694
v 1.115238 3.405817 4.246895
v 1.391239 3.364687 3.562195
v 1.115238 3.364687 3.562195
v 1.391239 3.224647 3.562195
v 1.115238 3.503577 4.298790
v 1.115238 4.725747 4.298790
v 1.391239 4.848777 4.252090
v 1.115238 4.848777 4.252090
v 1.115238 4.911897 4.366890
v 1.391239 4.911897 4.366890
v 1.391239 5.004677 4.098694
v 1.115238 5.004677 4.098694
v 1.115238 4.902787 4.098694
v 1.391239 4.902787 4.098694
v 1.115238 4.902787 3.562195
v 1.391239 4.902787 3.562195
v 1.115238 5.004677 3.562195
v 1.391239 5.004677 3.562195
v -7.784763 0.396278 3.535393
v -7.784763 0.396278 4.045090
v 0.442238 0.396278 4.045090
v 0.442238 0.396278 3.535393
v 0.442238 6.722887 3.535393
v -7.784763 6.722887 3.535393
v -7.784763 6.722887 4.045090
v 0.442238 6.722887 4.045090
v 8.538239 0.396278 4.045090
v 8.538239 6.722887 4.045090
v 8.538239 6.722887 3.535393
v 8.538239 0.396278 3.535393
v 0.809238 6.722887 4.045090
v 0.809238 0.396278 4.045090
v 0.809238 0.396278 3.535393
v 0.809238 6.722887 3.535393
v -13.710762 2.130966 -3.625809
v -13.710762 2.130967 3.507996
v 14.442238 2.130967 3.507996
v 14.442238 2.130966 -3.625809
v 14.442238 2.601357 -3.625809
v -13.710762 2.601357 -3.625809
v -13.710762 2.601357 3.507996
v 14.442238 2.601357 3.507996
vn -0.0000 -1.0000 -0.0000
vn -0.0000 -0.0000 1.0000
vn 1.0000 -0.0000 -0.0000
vn -1.0000 -0.0000 -0.0000
vn 1.0000 -0.0001 -0.0000
vn -0.0000 -0.0000 -1.0000
vn -0.0000 1.0000 -0.0000
vn 1.0000 0.0001 -0.0000
vn -0.0000 -0.9939 0.1104
vn -0.0000 -0.9753 0.2207
vn -0.0000 -0.9450 0.3271
vn -0.0000 -0.4337 0.9010
vn -0.0000 -0.2957 0.9553
vn -0.0000 -0.1480 0.9890
vn -0.0000 -0.1478 0.9890
vn -0.0000 0.2412 -0.9705
vn -0.0000 -0.1200 -0.9928
vn -0.0000 -0.1201 -0.9928
vn -0.0000 -0.2401 -0.9708
vn -0.0000 -0.3549 -0.9349
vn -0.0000 0.4337 0.9011
vn -0.0000 0.2224 0.9750
vn -0.0000 0.2224 0.9749
vn -0.0000 0.2223 0.9750
vn -0.0000 0.9753 0.2207
vn -0.0000 0.9450 0.3270
vn -0.0000 0.9939 0.1104
vn -0.0000 -0.9432 -0.3323
vn -0.0000 -0.9745 -0.2244
vn -0.0000 -0.9937 -0.1122
vn -0.0000 0.4682 -0.8836
vn -0.0000 0.9636 -0.2674
vn -0.0000 0.9837 -0.1797
vn -0.0000 0.9960 -0.0899
vn -0.0000 -0.9450 0.3270
vn -0.0000 0.2416 -0.9704
vn -0.0000 0.4689 -0.8833
vn -0.0000 0.2415 -0.9704
vn -0.0000 0.9754 0.2207
vn -0.0000 0.9450 0.3269
vn -0.0000 -0.9432 -0.3321
vn -0.0000 -0.9745 -0.2243
vn -0.0000 -0.9937 -0.1121
vt 0.000000 0.000000
s 1
usemtl acmat_0.001
f 9/1/1 1/1/1 2/1/1
f 1/1/2 3/1/2 2/1/2
f 3/1/2 1/1/2 4/1/2
f 1/1/3 8/1/3 4/1/3
f 7/1/3 1/1/3 5/1/3
f 5/1/3 1/1/3 6/1/3
f 1/1/1 9/1/1 6/1/1
f 8/1/3 1/1/3 7/1/3
f 10/1/2 12/1/2 9/1/2
f 9/1/4 3/1/4 10/1/4
f 3/1/4 9/1/4 2/1/4
f 11/1/2 6/1/2 9/1/2
f 11/1/2 9/1/2 12/1/2
f 14/1/2 12/1/2 13/1/2
f 8/1/2 13/1/2 12/1/2
f 14/1/2 16/1/2 12/1/2
f 12/1/1 15/1/1 17/1/1
f 15/1/1 12/1/1 16/1/1
f 18/1/3 12/1/3 17/1/3
f 12/1/3 18/1/3 11/1/3
f 12/1/2 10/1/2 19/1/2
f 20/1/2 12/1/2 19/1/2
f 8/1/2 12/1/2 20/1/2
s 0
f 10/1/5 8/1/3 20/1/3
f 10/1/5 20/1/3 19/1/3
s 1
f 15/1/6 18/1/6 17/1/6
f 18/1/7 21/1/7 11/1/7
f 21/1/7 18/1/7 22/1/7
f 18/1/6 15/1/6 22/1/6
f 15/1/4 21/1/4 22/1/4
f 21/1/2 24/1/2 23/1/2
f 28/1/2 21/1/2 23/1/2
f 21/1/2 28/1/2 11/1/2
f 24/1/2 21/1/2 26/1/2
f 25/1/2 21/1/2 27/1/2
f 21/1/2 25/1/2 26/1/2
f 21/1/4 15/1/4 16/1/4
f 21/1/2 16/1/2 27/1/2
f 28/1/1 31/1/1 29/1/1
f 29/1/4 30/1/4 28/1/4
f 7/1/2 28/1/2 30/1/2
f 31/1/1 28/1/1 26/1/1
s 0
f 26/1/3 28/1/5 23/1/3
s 1
f 28/1/2 6/1/2 11/1/2
f 6/1/2 28/1/2 5/1/2
f 28/1/2 7/1/2 5/1/2
f 32/1/2 31/1/2 34/1/2
f 31/1/2 32/1/2 29/1/2
f 27/1/3 31/1/3 25/1/3
f 25/1/3 31/1/3 26/1/3
f 33/1/3 31/1/3 27/1/3
f 31/1/3 33/1/3 34/1/3
f 33/1/7 32/1/7 34/1/7
f 32/1/7 33/1/7 14/1/7
s 0
f 14/1/8 33/1/3 35/1/3
s 1
f 27/1/2 16/1/2 33/1/2
f 16/1/2 35/1/2 33/1/2
s 0
f 14/1/8 35/1/3 36/1/3
s 1
f 35/1/2 16/1/2 36/1/2
f 16/1/2 14/1/2 36/1/2
f 13/1/4 32/1/4 14/1/4
f 32/1/4 13/1/4 29/1/4
f 29/1/4 13/1/4 30/1/4
f 13/1/2 8/1/2 30/1/2
f 7/1/2 30/1/2 8/1/2
s 0
f 26/1/3 23/1/8 24/1/3
s 1
f 3/1/7 8/1/7 10/1/7
f 8/1/7 3/1/7 4/1/7
f 41/1/2 37/1/2 38/1/2
f 37/1/3 39/1/3 38/1/3
f 39/1/3 37/1/3 40/1/3
f 37/1/1 43/1/1 40/1/1
f 37/1/2 41/1/2 42/1/2
f 43/1/1 37/1/1 42/1/1
f 39/1/6 43/1/6 44/1/6
f 43/1/6 39/1/6 40/1/6
f 43/1/4 41/1/4 44/1/4
f 41/1/4 43/1/4 42/1/4
f 41/1/7 39/1/7 44/1/7
f 39/1/7 41/1/7 38/1/7
f 51/1/9 45/1/1 46/1/1
f 45/1/6 47/1/6 46/1/6
f 47/1/6 45/1/6 48/1/6
f 45/1/4 49/1/4 48/1/4
f 49/1/4 45/1/4 50/1/4
f 45/1/1 51/1/9 50/1/10
f 53/1/11 50/1/10 51/1/9
f 52/1/3 53/1/3 51/1/3
f 51/1/3 47/1/3 52/1/3
f 47/1/3 51/1/3 46/1/3
f 50/1/10 53/1/11 54/1/11
f 53/1/3 52/1/3 55/1/3
f 53/1/12 56/1/13 54/1/12
f 55/1/3 57/1/3 53/1/3
f 56/1/13 53/1/12 57/1/14
f 57/1/3 55/1/3 58/1/3
f 57/1/14 59/1/2 56/1/13
f 61/1/3 57/1/3 58/1/3
f 59/1/2 57/1/15 60/1/2
f 57/1/3 61/1/3 60/1/3
f 61/1/6 62/1/16 63/1/6
f 62/1/16 61/1/6 58/1/16
f 64/1/3 60/1/3 61/1/3
f 61/1/7 59/1/7 60/1/7
f 60/1/1 63/1/1 61/1/1
f 59/1/7 61/1/7 63/1/7
f 63/1/6 64/1/17 61/1/6
f 64/1/18 63/1/6 66/1/19
f 66/1/19 65/1/20 64/1/18
f 65/1/3 67/1/3 64/1/3
f 60/1/3 64/1/3 67/1/3
f 67/1/3 65/1/3 68/1/3
f 68/1/21 69/1/22 67/1/23
f 69/1/22 60/1/2 67/1/23
f 69/1/4 63/1/4 59/1/4
f 63/1/4 69/1/4 66/1/4
f 69/1/22 68/1/21 70/1/21
f 70/1/4 66/1/4 69/1/4
f 60/1/2 69/1/24 59/1/2
f 66/1/4 70/1/4 71/1/4
f 70/1/4 73/1/4 71/1/4
f 74/1/25 70/1/26 68/1/26
f 70/1/26 74/1/25 72/1/27
f 73/1/4 70/1/4 72/1/4
f 76/1/3 75/1/3 74/1/3
f 75/1/7 72/1/27 74/1/25
f 68/1/3 76/1/3 74/1/3
f 76/1/3 68/1/3 65/1/3
f 65/1/28 73/1/29 76/1/30
f 76/1/30 77/1/1 78/1/1
f 77/1/1 76/1/30 73/1/29
f 75/1/3 76/1/3 78/1/3
f 78/1/2 79/1/2 77/1/2
f 77/1/6 75/1/6 78/1/6
f 79/1/2 78/1/2 75/1/2
f 75/1/6 77/1/6 79/1/6
f 77/1/4 72/1/4 79/1/4
f 72/1/27 75/1/7 79/1/7
f 72/1/4 77/1/4 73/1/4
f 73/1/29 65/1/28 71/1/28
f 65/1/20 66/1/19 71/1/20
f 62/1/4 59/1/4 63/1/4
f 63/1/1 60/1/1 59/1/1
f 62/1/16 55/1/31 80/1/31
f 55/1/31 62/1/16 58/1/16
f 59/1/4 62/1/4 56/1/4
f 80/1/4 56/1/4 62/1/4
f 80/1/32 52/1/33 49/1/34
f 49/1/4 54/1/4 80/1/4
f 52/1/33 80/1/32 55/1/32
f 56/1/4 80/1/4 54/1/4
f 54/1/4 49/1/4 50/1/4
f 47/1/7 49/1/34 52/1/33
f 49/1/34 47/1/7 48/1/7
f 85/1/22 81/1/2 82/1/23
f 81/1/3 83/1/3 82/1/3
f 83/1/3 81/1/3 84/1/3
f 84/1/7 86/1/7 81/1/7
f 81/1/1 87/1/1 84/1/1
f 88/1/3 84/1/3 81/1/3
f 81/1/2 85/1/24 86/1/2
f 87/1/1 81/1/1 86/1/1
f 86/1/2 88/1/15 81/1/2
f 88/1/14 86/1/2 90/1/13
f 84/1/3 88/1/3 89/1/3
f 88/1/3 91/1/3 89/1/3
f 90/1/13 92/1/12 88/1/14
f 91/1/3 88/1/3 92/1/3
f 92/1/12 90/1/13 93/1/12
f 92/1/3 94/1/3 91/1/3
f 96/1/10 92/1/35 93/1/35
f 94/1/3 92/1/3 95/1/3
f 92/1/35 96/1/10 95/1/9
f 98/1/4 97/1/4 96/1/4
f 97/1/1 95/1/9 96/1/10
f 93/1/4 98/1/4 96/1/4
f 98/1/4 93/1/4 99/1/4
f 99/1/32 94/1/33 98/1/34
f 100/1/7 98/1/34 94/1/33
f 98/1/34 100/1/7 101/1/7
f 97/1/4 98/1/4 101/1/4
f 100/1/6 97/1/6 101/1/6
f 97/1/6 100/1/6 102/1/6
f 100/1/3 95/1/3 102/1/3
f 95/1/3 100/1/3 94/1/3
f 95/1/9 97/1/1 102/1/1
f 90/1/4 99/1/4 93/1/4
f 99/1/4 90/1/4 103/1/4
f 94/1/33 99/1/32 91/1/32
f 103/1/36 91/1/37 99/1/37
f 86/1/4 103/1/4 90/1/4
f 103/1/4 86/1/4 87/1/4
f 84/1/6 103/1/38 87/1/6
f 103/1/36 84/1/6 89/1/36
f 91/1/37 103/1/36 89/1/36
f 83/1/18 87/1/6 104/1/19
f 87/1/6 83/1/17 84/1/6
f 86/1/7 84/1/7 87/1/7
f 87/1/4 85/1/4 104/1/4
f 85/1/4 87/1/4 86/1/4
f 104/1/19 105/1/20 83/1/18
f 107/1/4 104/1/4 85/1/4
f 105/1/20 104/1/19 106/1/20
f 104/1/4 107/1/4 106/1/4
f 107/1/4 111/1/4 106/1/4
f 109/1/39 107/1/40 108/1/40
f 85/1/22 108/1/21 107/1/21
f 107/1/40 109/1/39 110/1/27
f 111/1/4 107/1/4 110/1/4
f 105/1/41 111/1/42 112/1/43
f 111/1/42 105/1/41 106/1/41
f 113/1/1 112/1/43 111/1/42
f 110/1/4 113/1/4 111/1/4
f 113/1/4 110/1/4 115/1/4
f 113/1/6 116/1/6 114/1/6
f 112/1/43 113/1/1 114/1/1
f 116/1/6 113/1/6 115/1/6
f 110/1/27 116/1/7 115/1/7
f 116/1/7 110/1/27 109/1/39
f 116/1/3 112/1/3 114/1/3
f 112/1/3 116/1/3 109/1/3
f 112/1/3 108/1/3 105/1/3
f 108/1/3 112/1/3 109/1/3
f 82/1/3 105/1/3 108/1/3
f 108/1/21 85/1/22 82/1/23
f 105/1/3 82/1/3 83/1/3
f 123/1/4 117/1/4 118/1/4
f 117/1/1 119/1/1 118/1/1
f 119/1/1 117/1/1 120/1/1
f 117/1/6 121/1/6 120/1/6
f 121/1/6 117/1/6 122/1/6
f 117/1/4 123/1/4 122/1/4
f 123/1/7 121/1/7 122/1/7
f 121/1/7 123/1/7 124/1/7
f 123/1/2 119/1/2 124/1/2
f 119/1/2 123/1/2 118/1/2
f 119/1/3 121/1/3 124/1/3
f 121/1/3 119/1/3 120/1/3
f 129/1/2 125/1/2 126/1/2
f 125/1/3 127/1/3 126/1/3
f 127/1/3 125/1/3 128/1/3
f 125/1/1 131/1/1 128/1/1
f 125/1/2 129/1/2 130/1/2
f 131/1/1 125/1/1 130/1/1
f 131/1/6 127/1/6 128/1/6
f 127/1/6 131/1/6 132/1/6
f 131/1/4 129/1/4 132/1/4
f 129/1/4 131/1/4 130/1/4
f 129/1/7 127/1/7 132/1/7
f 127/1/7 129/1/7 126/1/7
f 139/1/4 133/1/4 134/1/4
f 133/1/1 135/1/1 134/1/1
f 135/1/1 133/1/1 136/1/1
f 133/1/6 137/1/6 136/1/6
f 137/1/6 133/1/6 138/1/6
f 133/1/4 139/1/4 138/1/4
f 139/1/7 137/1/7 138/1/7
f 137/1/7 139/1/7 140/1/7
f 139/1/2 135/1/2 140/1/2
f 135/1/2 139/1/2 134/1/2
f 135/1/3 137/1/3 140/1/3
f 137/1/3 135/1/3 136/1/3
